<svg xmlns="http://www.w3.org/2000/svg" viewBox="0 0 120 120" width="120" height="120" role="presentation"><circle cx="60.0" cy="60.0" r="57" fill="none" stroke="#8A6A1F" stroke-width="2" opacity="0.55"/><circle cx="60.0" cy="60.0" r="52" fill="none" stroke="#8A6A1F" stroke-width="1" opacity="0.35"/><g fill="none" stroke="#8A6A1F" stroke-width="2.4" stroke-linejoin="round"><path d="M60,100 C60,74 62,54 72,36"/><path d="M62,82 C47.0,70 44,68 40,74 C46,82 66,88 62,82 Z"/><path d="M64,70 C71.0,58 90,56 86,62 C92,70 68,76 64,70 Z"/><path d="M68,56 C53.0,44 50,40 46,46 C52,54 72,62 68,56 Z"/><path d="M72,44 C78.0,32 96,30 92,36 C98,44 76,50 72,44 Z"/><circle cx="52" cy="62" r="5.5"/><circle cx="76" cy="78" r="5.5"/><circle cx="58" cy="40" r="4.5"/></g></svg>